<?xml version="1.0" encoding="UTF-8" standalone="no"?>
<!-- Created with Inkscape (http://www.inkscape.org/) -->

<svg
   xmlns:dc="http://purl.org/dc/elements/1.1/"
   xmlns:cc="http://creativecommons.org/ns#"
   xmlns:rdf="http://www.w3.org/1999/02/22-rdf-syntax-ns#"
   xmlns:svg="http://www.w3.org/2000/svg"
   xmlns="http://www.w3.org/2000/svg"
   xmlns:sodipodi="http://sodipodi.sourceforge.net/DTD/sodipodi-0.dtd"
   xmlns:inkscape="http://www.inkscape.org/namespaces/inkscape"
   width="245.75363"
   height="34.463379"
   id="svg2"
   version="1.1"
   inkscape:version="0.48.5 r10040"
   sodipodi:docname="drawing.svg">
  <defs
     id="defs4" />
  <sodipodi:namedview
     id="base"
     pagecolor="#ffffff"
     bordercolor="#666666"
     borderopacity="1.0"
     inkscape:pageopacity="0.0"
     inkscape:pageshadow="2"
     inkscape:zoom="1.979899"
     inkscape:cx="122.96783"
     inkscape:cy="-35.932748"
     inkscape:document-units="px"
     inkscape:current-layer="layer1"
     showgrid="false"
     inkscape:window-width="1169"
     inkscape:window-height="763"
     inkscape:window-x="66"
     inkscape:window-y="66"
     inkscape:window-maximized="0"
     fit-margin-top="0"
     fit-margin-left="0"
     fit-margin-right="0"
     fit-margin-bottom="0" />
  <metadata
     id="metadata7">
    <rdf:RDF>
      <cc:Work
         rdf:about="">
        <dc:format>image/svg+xml</dc:format>
        <dc:type
           rdf:resource="http://purl.org/dc/dcmitype/StillImage" />
        <dc:title></dc:title>
      </cc:Work>
    </rdf:RDF>
  </metadata>
  <g
     inkscape:label="Layer 1"
     inkscape:groupmode="layer"
     id="layer1"
     transform="translate(-51.826283,-53.778809)">
    <text
       xml:space="preserve"
       style="font-size:48px;font-style:normal;font-weight:normal;line-height:125%;letter-spacing:0px;word-spacing:0px;fill:#000000;fill-opacity:1;stroke:none;font-family:Museo 500;-inkscape-font-specification:Museo 500"
       x="32.324883"
       y="30.087807"
       id="text2985"
       sodipodi:linespacing="125%"><tspan
         sodipodi:role="line"
         id="tspan2987"
         x="32.324883"
         y="30.087807" /></text>
    <flowRoot
       xml:space="preserve"
       id="flowRoot2989"
       style="font-size:48px;font-style:normal;font-weight:normal;line-height:125%;letter-spacing:0px;word-spacing:0px;fill:#000000;fill-opacity:1;stroke:none;font-family:Museo 500;-inkscape-font-specification:Museo 500"><flowRegion
         id="flowRegion2991"><rect
           id="rect2993"
           width="654.57886"
           height="371.73615"
           x="44.446712"
           y="104.8391" /></flowRegion><flowPara
         id="flowPara2995" /></flowRoot>    <g
       id="g3795">
      <g
         id="text2997"
         style="font-size:48px;font-style:normal;font-weight:normal;line-height:125%;letter-spacing:0px;word-spacing:0px;fill:#262678;fill-opacity:1;stroke:none;font-family:Museo 500;-inkscape-font-specification:Museo 500">
        <path
           id="path3779"
           d="m 54.9464,87.666504 0,-29.759766 -3.120117,0 0,-4.127929 14.928222,0 c 3.135722,3.3e-5 5.687722,0.96805 7.656006,2.904052 1.968235,1.936065 2.952365,4.503933 2.952393,7.703614 -2.8e-5,3.199727 -0.99197,5.791765 -2.97583,7.776123 -1.98391,1.984388 -4.528097,2.976575 -7.632569,2.976562 l -7.007812,0 0,12.527344 z m 4.800293,-16.655274 6.240234,0 c 1.983381,1.7e-5 3.55125,-0.592023 4.703613,-1.776123 1.152322,-1.184062 1.728494,-2.800027 1.728516,-4.8479 -2.2e-5,-2.016576 -0.568137,-3.600803 -1.704346,-4.752686 -1.13625,-1.151826 -2.696063,-1.727753 -4.679443,-1.727783 l -6.288574,0 z"
           inkscape:connector-curvature="0" />
        <path
           id="path3781"
           d="m 80.184193,80.850586 c -2e-6,-1.248039 0.256101,-2.360098 0.76831,-3.336182 0.512204,-0.976063 1.224362,-1.744128 2.136475,-2.304199 0.912104,-0.560045 1.856194,-1.031969 2.832275,-1.415771 0.976066,-0.383775 2.080069,-0.663804 3.312012,-0.840088 1.231921,-0.176255 2.24779,-0.288315 3.047607,-0.336182 0.79979,-0.04784 1.647934,-0.07176 2.544434,-0.07178 l 1.056152,0 0,-0.240235 c -1.7e-5,-2.11131 -0.416032,-3.607158 -1.248047,-4.487548 -0.832046,-0.880351 -2.208021,-1.320536 -4.127929,-1.320557 -0.896496,2.1e-5 -1.784679,0.136007 -2.664551,0.407959 -0.879891,0.271993 -1.319832,0.76003 -1.319824,1.464111 l 0,1.393067 -4.368164,0 0,-2.400879 c -4e-6,-0.927713 0.312007,-1.719705 0.936035,-2.375977 0.624018,-0.656227 1.431878,-1.12815 2.423584,-1.415771 0.991691,-0.287574 1.887686,-0.487525 2.687988,-0.599854 0.800282,-0.11228 1.584217,-0.168432 2.351807,-0.168457 3.680648,2.5e-5 6.264874,0.840112 7.752685,2.520264 1.487772,1.680196 2.231668,4.008075 2.231688,6.983642 l 0,10.319825 c -2e-5,0.704105 0.35203,1.056156 1.05615,1.056152 l 1.96729,0 0,3.984375 -4.3667,0 c -2.01662,0 -3.02492,-0.928222 -3.024902,-2.784668 l 0.09668,-1.439941 -0.09668,0 c -0.06349,0.127933 -0.143329,0.303959 -0.239502,0.528076 -0.09621,0.224124 -0.360369,0.608157 -0.792481,1.152099 -0.432145,0.543948 -0.920182,1.023928 -1.464111,1.439942 -0.54396,0.416016 -1.279799,0.800049 -2.20752,1.152099 -0.927746,0.352051 -1.935558,0.528076 -3.023437,0.528076 -2.240242,0 -4.17652,-0.656005 -5.808838,-1.968017 -1.632327,-1.312009 -2.448488,-3.119869 -2.448486,-5.423584 z m 5.66455,-2.831543 c -0.639655,0.671884 -0.959479,1.535653 -0.959472,2.591309 -7e-6,1.05567 0.399895,1.967534 1.199707,2.735595 0.799796,0.76807 1.919912,1.152103 3.360351,1.1521 1.855456,3e-6 3.399156,-0.807857 4.631104,-2.423584 1.231917,-1.615716 1.847883,-3.383536 1.8479,-5.303467 l 0,-0.815918 -1.199707,0 c -1.183609,1.2e-5 -2.21559,0.03981 -3.095947,0.119385 -0.880383,0.0796 -1.904552,0.255626 -3.07251,0.528076 -1.167978,0.272472 -2.071785,0.744639 -2.711426,1.416504 z"
           inkscape:connector-curvature="0" />
        <path
           id="path3783"
           d="m 108.54943,84.594727 0,-25.776856 c -1e-5,-0.703095 -0.35206,-1.054658 -1.05616,-1.054687 l -1.96875,0 0,-3.984375 4.6084,0 c 1.08789,3.3e-5 1.87182,0.240023 2.35181,0.71997 0.47997,0.480013 0.71996,1.263948 0.71997,2.351807 l 0,25.775391 c -1e-5,0.704105 0.35204,1.056156 1.05615,1.056152 l 1.96875,0 0,3.984375 -4.6084,0 c -1.08789,0 -1.87183,-0.23999 -2.3518,-0.719971 -0.47999,-0.479979 -0.71998,-1.263914 -0.71997,-2.351806 z"
           inkscape:connector-curvature="0" />
        <path
           id="path3785"
           d="m 119.13732,75.522949 c 0,-3.808578 1.15185,-6.88084 3.45556,-9.216797 2.30371,-2.335913 5.21581,-3.503881 8.73633,-3.503906 3.29588,2.5e-5 5.86375,1.072045 7.70362,3.216065 1.83982,2.144062 2.75974,4.86403 2.75976,8.159912 l -0.14355,1.92041 -17.71289,0 c 0.1289,2.496103 0.99315,4.472175 2.59277,5.928222 1.5996,1.456059 3.51952,2.184086 5.75976,2.184082 1.24804,4e-6 2.4641,-0.239986 3.6482,-0.71997 1.18406,-0.479976 2.04807,-0.944087 2.59204,-1.392334 l 0.86426,-0.720703 2.01562,3.312011 c -0.25588,0.256839 -0.63991,0.585208 -1.1521,0.985108 -0.51223,0.399904 -1.58425,0.927735 -3.21606,1.583496 -1.63186,0.655761 -3.29592,0.983642 -4.99219,0.983642 -3.80763,0 -6.91138,-1.208007 -9.31128,-3.624023 -2.3999,-2.41601 -3.59985,-5.447745 -3.59985,-9.095215 z m 4.99219,-2.833008 12.86279,0 c -0.0635,-1.951155 -0.63918,-3.470928 -1.72705,-4.559326 -1.08791,-1.088358 -2.41603,-1.632547 -3.98438,-1.632568 -1.82423,2.1e-5 -3.38429,0.536153 -4.68017,1.608398 -1.29591,1.072284 -2.11964,2.600115 -2.47119,4.583496 z"
           inkscape:connector-curvature="0" />
        <path
           id="path3787"
           d="m 157.83702,87.666504 0,-4.12793 1.63184,0 c 0.64062,4e-6 0.99267,-0.352046 1.05615,-1.056152 l 2.3042,-28.703613 4.94385,0 7.96875,17.95166 1.68018,4.271484 0.0952,0 c 0.57615,-1.631823 1.13621,-3.055649 1.68018,-4.271484 l 7.96875,-17.95166 4.94384,0 2.3042,28.703613 c 0.0634,0.704106 0.415,1.056156 1.05469,1.056152 l 1.58496,0 0,4.12793 -4.27295,0 c -1.0557,0 -1.81546,-0.23999 -2.27929,-0.719971 -0.4639,-0.479979 -0.72806,-1.263914 -0.79248,-2.351806 l -1.39161,-17.904786 -0.0952,-4.990722 -0.0967,0 c -0.63968,2.111352 -1.23148,3.774924 -1.77539,4.990722 l -6.86426,14.879883 -4.03271,0 -6.86426,-14.879883 c -0.25587,-0.511697 -0.53566,-1.191628 -0.83936,-2.039795 -0.30372,-0.84812 -0.53565,-1.559789 -0.6958,-2.135009 l -0.28857,-0.864258 -0.0952,0 c 0.0312,2.015649 -9.8e-4,3.695335 -0.0967,5.039062 l -1.34326,17.904786 c -0.0645,1.087892 -0.32862,1.871827 -0.79248,2.351806 -0.46387,0.479981 -1.23975,0.719971 -2.32764,0.719971 z"
           inkscape:connector-curvature="0" />
        <path
           id="path3789"
           d="m 203.55333,84.594727 c -2.52734,-2.432612 -3.79101,-5.472892 -3.79101,-9.12085 0,-3.647933 1.26391,-6.671856 3.79175,-9.071777 2.52782,-2.399879 5.61595,-3.599829 9.2644,-3.599854 3.67967,2.5e-5 6.78343,1.199975 9.31128,3.599854 2.5278,2.399921 3.79172,5.423844 3.79175,9.071777 -3e-5,3.647958 -1.272,6.687994 -3.81592,9.120117 -2.54397,2.43213 -5.63991,3.648193 -9.28784,3.648193 -3.64796,0 -6.73609,-1.215819 -9.26441,-3.64746 z m 3.38379,-15.312012 c -1.61524,1.631853 -2.42286,3.695815 -2.42285,6.191894 -1e-5,2.496104 0.80785,4.57618 2.42358,6.240235 1.61572,1.664067 3.57592,2.496097 5.88062,2.496093 2.33592,4e-6 4.31175,-0.82397 5.92749,-2.471923 1.6157,-1.647942 2.42356,-3.736075 2.42358,-6.264405 -2e-5,-2.496079 -0.80788,-4.560041 -2.42358,-6.191894 -1.61574,-1.631816 -3.59157,-2.447733 -5.92749,-2.447754 -2.3047,2.1e-5 -4.26515,0.815938 -5.88135,2.447754 z"
           inkscape:connector-curvature="0" />
        <path
           id="path3791"
           d="m 233.17833,84.594727 c -2.52734,-2.432612 -3.79101,-5.472892 -3.79101,-9.12085 0,-3.647933 1.26391,-6.671856 3.79175,-9.071777 2.52782,-2.399879 5.61595,-3.599829 9.2644,-3.599854 3.67967,2.5e-5 6.78343,1.199975 9.31128,3.599854 2.5278,2.399921 3.79172,5.423844 3.79175,9.071777 -3e-5,3.647958 -1.272,6.687994 -3.81592,9.120117 -2.54397,2.43213 -5.63991,3.648193 -9.28784,3.648193 -3.64796,0 -6.73609,-1.215819 -9.26441,-3.64746 z m 3.38379,-15.312012 c -1.61524,1.631853 -2.42286,3.695815 -2.42285,6.191894 -1e-5,2.496104 0.80785,4.57618 2.42358,6.240235 1.61572,1.664067 3.57592,2.496097 5.88062,2.496093 2.33592,4e-6 4.31175,-0.82397 5.92749,-2.471923 1.6157,-1.647942 2.42356,-3.736075 2.42358,-6.264405 -2e-5,-2.496079 -0.80788,-4.560041 -2.42358,-6.191894 -1.61574,-1.631816 -3.59157,-2.447733 -5.92749,-2.447754 -2.3047,2.1e-5 -4.26515,0.815938 -5.88135,2.447754 z"
           inkscape:connector-curvature="0" />
        <path
           id="path3793"
           d="m 261.36339,87.666504 0,-19.248047 c 0,-0.704082 -0.35205,-1.056132 -1.05615,-1.056152 l -1.96729,0 0,-3.984375 4.46338,0 c 2.04785,2.4e-5 3.07177,0.896019 3.07178,2.687988 l 0,0.912598 -0.0952,1.391601 0.0952,0 c 0.64062,-1.375956 1.72899,-2.647927 3.26514,-3.815918 1.53612,-1.167944 3.48777,-1.751928 5.85498,-1.751953 2.84861,2.5e-5 4.95286,0.768091 6.31274,2.304199 1.35984,1.536154 2.03977,3.872089 2.0398,7.007813 l 0,10.511719 c -3e-5,0.704105 0.35202,1.056156 1.05615,1.056152 l 1.96728,0 0,3.984375 -4.60693,0 c -1.08791,0 -1.87185,-0.23999 -2.35181,-0.719971 -0.48,-0.479979 -0.71999,-1.263914 -0.71997,-2.351806 l 0,-11.424317 c -2e-5,-1.952132 -0.31203,-3.456037 -0.93603,-4.511719 -0.62405,-1.055644 -1.83205,-1.583475 -3.62403,-1.583496 -1.85646,2.1e-5 -3.48072,0.552022 -4.8728,1.656006 -1.3921,1.104022 -2.32789,2.535905 -2.80737,4.295654 -0.2881,0.832046 -0.43214,1.919935 -0.43213,3.263672 l 0,11.375977 z"
           inkscape:connector-curvature="0" />
      </g>
      <g
         id="text3769"
         style="font-size:10px;font-style:normal;font-weight:normal;line-height:125%;letter-spacing:0px;word-spacing:0px;fill:#262678;fill-opacity:1;stroke:none;font-family:Museo 500;-inkscape-font-specification:Museo 500">
        <path
           id="path3774"
           d="m 285.52277,60.897457 0,-6.199951 -1.41999,0 c -0.14669,6e-6 -0.22003,0.07335 -0.22003,0.220032 l 0,0.449829 -0.88989,0 0,-0.929871 c 0,-0.226637 0.0433,-0.383294 0.12985,-0.469971 0.0866,-0.08666 0.24328,-0.129997 0.47012,-0.130004 l 4.85993,0 c 0.22664,7e-6 0.38329,0.04334 0.46997,0.130004 0.0867,0.08668 0.13,0.243334 0.13,0.469971 l 0,0.929871 -0.88989,0 0,-0.449829 c 0,-0.146682 -0.0734,-0.220026 -0.22003,-0.220032 l -1.41998,0 0,6.199951 z"
           inkscape:connector-curvature="0" />
        <path
           id="path3776"
           d="m 289.40979,60.897457 0,-0.859985 0.33997,0 c 0.13346,10e-7 0.2068,-0.07334 0.22003,-0.220032 l 0.48004,-5.979919 1.02997,0 1.66015,3.739929 0.35004,0.889892 0.0198,0 c 0.12003,-0.339963 0.23671,-0.636593 0.35003,-0.889892 l 1.66016,-3.739929 1.02997,0 0.48004,5.979919 c 0.0132,0.146689 0.0865,0.220033 0.21973,0.220032 l 0.3302,0 0,0.859985 -0.8902,0 c -0.21994,0 -0.37822,-0.05 -0.47486,-0.149994 -0.0966,-0.09999 -0.15167,-0.263315 -0.1651,-0.489959 l -0.28991,-3.730164 -0.0198,-1.039734 -0.0201,0 c -0.13327,0.439865 -0.25656,0.786443 -0.36987,1.039734 l -1.43006,3.099976 -0.84015,0 -1.43005,-3.099976 c -0.0533,-0.106604 -0.11159,-0.248256 -0.17487,-0.424957 -0.0633,-0.176692 -0.11159,-0.324957 -0.14495,-0.444794 l -0.0601,-0.180054 -0.0198,0 c 0.007,0.419927 -2.1e-4,0.769862 -0.0201,1.049805 l -0.27985,3.730164 c -0.0134,0.226644 -0.0685,0.389964 -0.1651,0.489959 -0.0966,0.1 -0.25828,0.149994 -0.48492,0.149994 z"
           inkscape:connector-curvature="0" />
      </g>
    </g>
  </g>
</svg>
